<svg xmlns="http://www.w3.org/2000/svg" viewBox="0 0 48 48" width="96" height="96">
  <defs>
    <linearGradient id="bg" x1="0" y1="0" x2="1" y2="1">
      <stop offset="0%" stop-color="#6366f1"/>
      <stop offset="100%" stop-color="#8b5cf6"/>
    </linearGradient>
  </defs>
  <rect width="48" height="48" rx="10" fill="url(#bg)"/>
  <g fill="none" stroke="#fff" stroke-width="2.5" stroke-linecap="round" stroke-linejoin="round">
    <path d="M15 14h-2a2 2 0 0 0-2 2v16a2 2 0 0 0 2 2h2l8-6V20l-8-6z" fill="#fff" fill-opacity="0.2"/>
    <path d="M15 14l8 6v8l-8 6"/>
    <path d="M15 14v20"/>
    <path d="M11 16v16"/>
    <path d="M28 18a6 6 0 0 1 0 12"/>
    <path d="M31 13a12 12 0 0 1 0 22"/>
    <path d="M34 8.5a18 18 0 0 1 0 31"/>
  </g>
</svg>
